<?xml version="1.0" encoding="utf-8"?>
<!-- Generator: Adobe Illustrator 23.0.5, SVG Export Plug-In . SVG Version: 6.00 Build 0)  -->
<svg version="1.1" id="Capa_1" xmlns="http://www.w3.org/2000/svg" xmlns:xlink="http://www.w3.org/1999/xlink" x="0px" y="0px"
	 viewBox="0 0 170.1 170.1" style="enable-background:new 0 0 170.1 170.1;" xml:space="preserve">
<style type="text/css">
	.st0{fill:#010202;}
	.st1{fill:none;}
	.st2{fill:#FFFFFF;}
	.st3{fill:none;stroke:#010202;stroke-miterlimit:10;}
	.st4{fill:#F7BC58;}
</style>
<path class="st0" d="M-349.5-209.8l-18.8,40l-8.6-21.5c0.3-1.1,0.5-2.2,0.6-3.4c0.4-4.8-0.8-8.5-3.8-11.2s-7.2-4-12.8-4H-409
	l-8.9,51.2h8.7l3.4-19.7h9.7l6.7,19.6h9.2v-0.5l-7.6-21.1c1.8-0.7,3.5-1.6,4.9-2.6l8.9,24.4h8.4l25.9-51.2H-349.5z M-385-194.3
	c-0.4,2.8-1.6,4.9-3.6,6.5c-2.1,1.6-4.6,2.4-7.6,2.4l-8.4-0.1l3-17.2h9.3c2.7,0.1,4.6,0.9,5.9,2.3S-384.6-196.9-385-194.3z"/>
<path d="M-278.2-193.3h7.6c0.2,0,0.4,0.1,0.6,0.2c0.2,0.2,0.2,0.3,0.2,0.4c0,0.1,0,0.3,0,0.4l-8.3,23c-0.3,0.8-0.8,1.2-1.6,1.2h-8.4
	c-0.8,0-1.3-0.4-1.6-1.1l-9-16.7c0-0.1,0-0.2,0-0.4s0.1-0.3,0.2-0.4c0.2-0.2,0.3-0.2,0.6-0.2h7.6c0.4,0,0.8,0.1,1.1,0.4
	c0.3,0.3,0.5,0.5,0.6,0.8l4.7,7.4l4.1-13.8C-279.6-192.9-279.1-193.3-278.2-193.3z"/>
<rect x="-427.1" y="-269.1" class="st1" width="104.6" height="37.1"/>
<text transform="matrix(1 0 0 1 -427.0382 -243.9034)" style="font-family:'SpaceMono-Bold'; font-size:36px;">RV</text>
<rect x="-380" y="174.5" class="st1" width="169.9" height="16.5"/>
<text transform="matrix(1 0 0 1 -368.0321 187.9568)" style="font-family:'Roboto-Black'; font-size:18px;">ALMOHADONERA</text>
<rect x="-271.2" y="-125.9" class="st1" width="74.9" height="31"/>
<text transform="matrix(1 0 0 1 -271.1581 -100.743)" style="font-family:'RubikMonoOne-Regular'; font-size:36px;">Rv</text>
<path d="M-277.4-135.7c0,0.1,0.1,0.2,0.1,0.4s-0.1,0.3-0.2,0.5c-0.2,0.2-0.3,0.2-0.6,0.2h-8.2c-0.7,0-1.2-0.3-1.5-0.9l-3.2-7.1h-3
	v7.1c0,0.3-0.1,0.5-0.3,0.7c-0.2,0.2-0.4,0.3-0.7,0.3h-7.8c-0.3,0-0.5-0.1-0.7-0.3s-0.3-0.4-0.3-0.7v-23.3c0-0.3,0.1-0.5,0.3-0.7
	s0.4-0.3,0.7-0.3h14c3.3,0,5.9,0.8,7.8,2.3s2.9,3.7,2.9,6.4c0,3.3-1.3,5.6-3.8,7.1L-277.4-135.7z M-294-153.1v3.8h4.5
	c0.5,0,0.9-0.2,1.2-0.5c0.3-0.3,0.4-0.8,0.4-1.3s-0.1-1-0.4-1.4s-0.7-0.6-1.2-0.6H-294z"/>
<g>
	<path class="st2" d="M-551.3,152.9c-0.5,0-0.6-0.1-0.7-0.5l-9.4-21.3h-6.3v10.5h-9.9v-30.2h18.2c4,0,7.1,0.9,9.3,2.8
		c2.2,1.8,3.3,4.1,3.3,7.3c0,3.8-1.4,6.4-4.2,8.1l-1.2,0.7l4.4,8.3l2.6,4.8l6.2-17.5v-0.1c0.1-0.4,0.2-0.5,0.8-0.5h9.4l-10.6,26.9
		c-0.2,0.6-0.4,0.7-0.8,0.7L-551.3,152.9L-551.3,152.9z M-567.8,125.2h7.3c1.4,0,2.2-0.7,2.7-1.2c0.6-0.7,0.9-1.6,0.9-2.6
		s-0.3-1.9-0.8-2.6c-0.4-0.6-1.3-1.4-2.8-1.4h-7.3L-567.8,125.2L-567.8,125.2z"/>
	<path class="st0" d="M-559.5,112.9c3.6,0,6.5,0.8,8.5,2.4c1.9,1.5,2.7,3.5,2.7,6.2c0,3.3-1.1,5.4-3.5,6.8l-2.4,1.4l1.3,2.4l3.8,7.1
		l1.1,2l3,5.6l2.1-6l5-14.1h6.9l-9.8,24.7H-551l-8.9-20.1l-0.7-1.7h-1.8h-3.9h-2.8v2.8v7.7h-7.1v-27.4h16.7 M-569.2,126.7h2.8h5.9
		c1.5,0,2.9-0.6,3.8-1.7c0.8-1,1.2-2.2,1.2-3.5s-0.4-2.4-1.1-3.4c-0.9-1.3-2.3-2-4-2h-5.9h-2.8v2.8v5L-569.2,126.7 M-559.5,110.1
		h-18.4c-0.3,0-0.6,0.1-0.9,0.4s-0.4,0.6-0.4,0.9v30.5c0,0.3,0.1,0.6,0.4,0.9c0.3,0.3,0.5,0.4,0.9,0.4h10.2c0.3,0,0.6-0.1,0.9-0.4
		c0.3-0.3,0.4-0.5,0.4-0.9v-9.2h3.9l9,20.3c0.3,0.9,1,1.4,2.1,1.4h11c1.1,0,1.8-0.5,2.1-1.6l10.9-27.5c0-0.1,0-0.3,0-0.5
		s-0.1-0.4-0.3-0.6s-0.4-0.3-0.7-0.3h-10c-1.1,0-1.8,0.5-2.1,1.6l-5.1,14.4l-1.1-2l-3.8-7.1c3.3-1.9,5-5,5-9.3
		c0-3.5-1.3-6.3-3.8-8.4C-551.8,111.1-555.2,110.1-559.5,110.1L-559.5,110.1z M-566.4,123.8v-5h5.9c0.7,0,1.3,0.3,1.6,0.8
		c0.4,0.5,0.5,1.1,0.5,1.8c0,0.7-0.2,1.3-0.6,1.7c-0.4,0.5-0.9,0.7-1.6,0.7H-566.4L-566.4,123.8z"/>
</g>
<polygon class="st0" points="-422.8,41.1 -470.5,41.1 -470.7,41.2 -470.8,41.4 -470.8,90 -470.7,90.2 -470.5,90.3 -470.5,90.4 
	-463.1,90.4 -462.9,90.3 -462.8,90.1 -462.8,51.9 -462.8,50.5 -461.4,50.5 -422.9,50.4 -422.7,50.3 -422.6,50.1 -422.5,41.4 
	-422.6,41.2 "/>
<g>
	<path class="st0" d="M-232.8-264.6C-232.9-264.6-232.9-264.6-232.8-264.6L-232.8-264.6l-0.1,0.2L-238-250l-1.6,4.5l-2.3-4.2l-1.1-2
		l-3.8-7.1l-1-1.8l1.8-1c2.7-1.6,3.9-4,3.9-7.5c0-2.9-1-5.1-3-6.7c-2.1-1.7-5.1-2.6-8.9-2.6h-17.4v28.7h8.5v-8.4v-2.1h2.1h3.9h1.4
		l0.6,1.3l9,20.3v0.1v0.1h0.1h11c0.1,0,0.1,0,0.1,0v-0.1v-0.1v-0.1l10.3-25.9L-232.8-264.6L-232.8-264.6z M-251.8-266.2
		c-0.5,0.7-1.5,1.5-3.2,1.5h-5.9h-2.1v-2.2v-5v-2.1h2.1h5.9c1.4,0,2.6,0.6,3.4,1.7c0.6,0.9,0.9,1.9,0.9,3
		C-250.6-268.1-251.1-267-251.8-266.2z"/>
	<path class="st0" d="M-248.6-211.4h47.7c0.1,0,0.1,0,0.2-0.1c0.1-0.1,0.1-0.1,0.1-0.2v-48.6c0-0.1,0-0.1-0.1-0.2s-0.1-0.1-0.2-0.1
		v-0.1h-7.4c-0.1,0-0.1,0-0.2,0.1c-0.1,0.1-0.1,0.1-0.1,0.2v38.2v1.4h-1.4l-38.5,0.1c-0.1,0-0.1,0-0.2,0.1c-0.1,0.1-0.1,0.1-0.1,0.2
		l-0.1,8.7c0,0.1,0,0.1,0.1,0.2C-248.7-211.4-248.7-211.4-248.6-211.4z"/>
	<path class="st0" d="M-247.3-306H-295c-0.1,0-0.1,0-0.2,0.1s-0.1,0.1-0.1,0.2v48.6c0,0.1,0,0.1,0.1,0.2s0.1,0.1,0.2,0.1v0.1h7.4
		c0.1,0,0.1,0,0.2-0.1s0.1-0.1,0.1-0.2v-38.2v-1.4h1.4l38.5-0.1c0.1,0,0.1,0,0.2-0.1s0.1-0.1,0.1-0.2l0.1-8.7c0-0.1,0-0.1-0.1-0.2
		C-247.2-306-247.2-306-247.3-306z"/>
	<rect x="-295" y="-305.5" class="st3" width="94.3" height="94.3"/>
</g>
<g>
	<path class="st2" d="M121.3,64.6h-6.7c-0.6,0-1.1,0.3-1.3,0.9l-12.1,27.8c-0.5,1.1-1.9,1.1-2.5,0.2L90.5,80
		c-0.2-0.3-0.2-0.6-0.2-0.9c0.1-0.5,0.1-1.1,0.1-1.7c0-4.1-1.4-7.3-4.1-9.5s-9.2-3.4-14.2-3.4H57.8c-0.8,0-1.4,0.6-1.4,1.4v39.8
		c0,0.8,0.6,1.4,1.4,1.4h6c0.8,0,1.4-0.6,1.4-1.4V92.9c0-0.8,0.6-1.4,1.4-1.4h4.7c0.5,0,1,0.3,1.3,0.8l7.2,14.1
		c0.2,0.5,0.7,0.8,1.3,0.8h8.6v-0.4l-8.4-15.9c-0.4-0.8,0-1.7,0.8-2c0.7-0.2,1.4-0.5,2-0.8c0.7-0.3,1.5,0,1.8,0.6l9.4,17.7
		c0.2,0.5,0.7,0.8,1.3,0.8h7.4c0.6,0,1.1-0.3,1.3-0.8l17.4-39.6C123,65.6,122.3,64.6,121.3,64.6z M79.8,82.7
		c-1.2,1.1-2.9,1.7-5.1,1.7h-8.2c-0.8,0-1.4-0.6-1.4-1.4V73c0-0.8,0.6-1.4,1.4-1.4h8.2c2.4,0,4.1,0.6,5.3,1.7
		c1.1,1.2,1.7,2.7,1.7,4.7C81.6,80,81,81.6,79.8,82.7z"/>
	<g>
		<path class="st2" d="M44.4,43.1H86c0.8,0,1.4-0.6,1.4-1.4v-6.4c0-0.8-0.6-1.4-1.4-1.4H35.3c-0.8,0-1.4,0.6-1.4,1.4v50.8
			c0,0.8,0.6,1.4,1.4,1.4h6.3c0.8,0,1.4-0.6,1.4-1.4V44.5C43.1,43.7,43.8,43.1,44.4,43.1z"/>
	</g>
	<g>
		<path class="st2" d="M125.6,127.1H84.1c-0.8,0-1.4,0.6-1.4,1.4v6.3c0,0.8,0.6,1.4,1.4,1.4h50.8c0.8,0,1.4-0.6,1.4-1.4V84
			c0-0.8-0.6-1.4-1.4-1.4h-6.4c-0.8,0-1.4,0.6-1.4,1.4v41.7C127,126.4,126.4,127.1,125.6,127.1z"/>
	</g>
</g>
<path d="M-63.4,63h-6.7c-0.6,0-1.1,0.3-1.3,0.9l-12.2,27.9c-0.5,1.1-1.9,1.1-2.5,0.2l-8-13.7c-0.2-0.3-0.2-0.6-0.2-0.9
	c0.1-0.5,0.1-1.1,0.1-1.7c0-4.1-1.4-7.3-4.1-9.5s-9.2-3.4-14.2-3.4h-14.4c-0.8,0-1.4,0.6-1.4,1.4V104c0,0.8,0.6,1.4,1.4,1.4h6
	c0.8,0,1.4-0.6,1.4-1.4V91.3c0-0.8,0.6-1.4,1.4-1.4h4.7c0.5,0,1,0.3,1.3,0.8l7.2,14.1c0.2,0.5,0.7,0.8,1.3,0.8h8.5v-0.4l-8.4-15.9
	c-0.4-0.8,0-1.7,0.8-2c0.7-0.2,1.4-0.5,2-0.8c0.7-0.3,1.5,0,1.8,0.6l9.4,17.7c0.2,0.5,0.7,0.8,1.3,0.8h7.4c0.6,0,1.1-0.3,1.3-0.8
	L-62.1,65C-61.6,64-62.3,63-63.4,63z M-104.8,81.1c-1.2,1.1-2.9,1.7-5.1,1.7h-8.2c-0.8,0-1.4-0.6-1.4-1.4v-10c0-0.8,0.6-1.4,1.4-1.4
	h8.2c2.4,0,4.1,0.6,5.3,1.7c1.1,1.2,1.7,2.7,1.7,4.7C-103,78.4-103.6,80-104.8,81.1z"/>
<g>
	<path d="M-140.2,41.5h41.6c0.8,0,1.4-0.6,1.4-1.4v-6.3c0-0.8-0.6-1.4-1.4-1.4h-50.7c-0.8,0-1.4,0.6-1.4,1.4v50.8
		c0,0.8,0.6,1.4,1.4,1.4h6.3c0.8,0,1.4-0.6,1.4-1.4V42.9C-141.6,42.1-141,41.5-140.2,41.5z"/>
</g>
<g>
	<path d="M-59,125.5h-41.6c-0.8,0-1.4,0.6-1.4,1.4v6.3c0,0.8,0.6,1.4,1.4,1.4h50.8c0.8,0,1.4-0.6,1.4-1.4V82.4
		c0-0.8-0.6-1.4-1.4-1.4h-6.3c-0.8,0-1.4,0.6-1.4,1.4V124C-57.6,124.8-58.2,125.5-59,125.5z"/>
</g>
<g>
	<path class="st4" d="M304.3,55.6h-6.7c-0.6,0-1.1,0.3-1.3,0.9l-12.1,27.8c-0.5,1.1-1.9,1.1-2.5,0.2L273.5,71
		c-0.2-0.3-0.2-0.6-0.2-0.9c0.1-0.5,0.1-1.1,0.1-1.7c0-4.1-1.4-7.3-4.1-9.5c-2.7-2.2-9.2-3.4-14.2-3.4h-14.3c-0.8,0-1.4,0.6-1.4,1.4
		v39.8c0,0.8,0.6,1.4,1.4,1.4h6c0.8,0,1.4-0.6,1.4-1.4V83.9c0-0.8,0.6-1.4,1.4-1.4h4.7c0.5,0,1,0.3,1.3,0.8l7.2,14.1
		c0.2,0.5,0.7,0.8,1.3,0.8h8.6v-0.4l-8.4-15.9c-0.4-0.8,0-1.7,0.8-2c0.7-0.2,1.4-0.5,2-0.8c0.7-0.3,1.5,0,1.8,0.6l9.4,17.7
		c0.2,0.5,0.7,0.8,1.3,0.8h7.4c0.6,0,1.1-0.3,1.3-0.8l17.4-39.6C306,56.6,305.3,55.6,304.3,55.6z M262.8,73.7
		c-1.2,1.1-2.9,1.7-5.1,1.7h-8.2c-0.8,0-1.4-0.6-1.4-1.4V64c0-0.8,0.6-1.4,1.4-1.4h8.2c2.4,0,4.1,0.6,5.3,1.7
		c1.1,1.2,1.7,2.7,1.7,4.7C264.6,71,264,72.6,262.8,73.7z"/>
	<g>
		<path d="M227.4,34.1H269c0.8,0,1.4-0.6,1.4-1.4v-6.4c0-0.8-0.6-1.4-1.4-1.4h-50.7c-0.8,0-1.4,0.6-1.4,1.4v50.8
			c0,0.8,0.6,1.4,1.4,1.4h6.3c0.8,0,1.4-0.6,1.4-1.4V35.5C226.1,34.7,226.8,34.1,227.4,34.1z"/>
	</g>
	<g>
		<path d="M308.6,118.1h-41.5c-0.8,0-1.4,0.6-1.4,1.4v6.3c0,0.8,0.6,1.4,1.4,1.4h50.8c0.8,0,1.4-0.6,1.4-1.4V75
			c0-0.8-0.6-1.4-1.4-1.4h-6.4c-0.8,0-1.4,0.6-1.4,1.4v41.7C310,117.4,309.4,118.1,308.6,118.1z"/>
	</g>
</g>
</svg>
